<svg width="1904" height="760" viewBox="0 0 1904 760" fill="none" xmlns="http://www.w3.org/2000/svg">
<path d="M0 0H1904V760H0V0Z" fill="white"/>
<mask id="mask0_1754_4015" style="mask-type:alpha" maskUnits="userSpaceOnUse" x="0" y="0" width="1904" height="760">
<path d="M0 0H1904V760H0V0Z" fill="#DFDEFF"/>
</mask>
<g mask="url(#mask0_1754_4015)">
<path d="M2451.73 651.992C2385.33 810.99 2362.79 890.866 2321.06 1052.86C2273.31 1238.25 2480.73 1495.38 2384.52 1673.52C2303.79 1823.02 2052.23 1671.08 1672.13 1711.28C1292.02 1751.48 1281.25 1671.75 1080.33 1670.07C925.175 1668.77 773.649 1703.12 618.435 1702.44C452.868 1701.72 296.976 1668 131.536 1665.94C-134.395 1662.64 -544.477 1789.07 -700.962 1648.1C-860.625 1504.27 -793.3 1315.01 -776.375 1130.04C-765.603 1012.32 -771.173 926.135 -831.92 818.222C-925.401 652.158 -837.918 785.219 -806.942 604.422C-779.534 444.447 -585.737 650.967 -371.274 576.846C-150.513 500.548 164.134 597.202 404.723 567.158C590.562 543.951 634.136 530.282 821.348 529.722C1007.51 529.166 1209.48 558.677 1388.18 588.234C1579.18 619.826 1808.39 542.459 1983.28 600.987C2165.57 661.995 2316.12 762.517 2451.73 533.02C2561.42 651.947 2510.27 511.833 2451.73 651.992Z" fill="#FFFCE4"/>
<path d="M2474.47 379.734C2441.78 548.939 2435.95 631.738 2428.04 798.848C2418.98 990.089 2674.33 1199.57 2616.36 1393.6C2567.71 1556.42 2290.53 1458.91 1926.57 1575.73C1562.6 1692.54 1535.85 1616.68 1338.8 1655.97C1186.63 1686.31 1045.26 1750.82 893.161 1781.78C730.917 1814.81 571.435 1813.56 409.044 1845.26C148.015 1896.21 -227.768 2103.57 -409.636 1997.43C-595.197 1889.13 -567.761 1690.12 -588.798 1505.57C-602.186 1388.11 -625.163 1304.86 -706.577 1211.59C-831.863 1068.04 -719.159 1180.5 -725.591 997.168C-731.283 834.953 -499.559 997.666 -304.66 881.393C-104.038 761.707 223.668 792.225 453.106 713.786C630.332 653.196 670.214 630.934 853.39 592.239C1035.54 553.761 1239.27 541.501 1420.24 534.026C1613.66 526.037 1822.34 403.583 2005.46 425.252C2196.34 447.839 2364.17 515.582 2450.28 263.25C2581.85 357.339 2503.29 230.578 2474.47 379.734Z" fill="#A7DFFF"/>
<path d="M936.627 369.36C936.459 369.256 936.301 369.132 936.163 368.994C931.643 364.476 893.692 326.548 892.498 324.423C891.422 322.505 880.18 282.758 880.18 282.758L899.782 283.831L908.897 320.662C910.067 322.278 932.753 351.473 932.753 351.473C932.753 351.473 936.77 356.939 939.336 360.018C940.289 360.354 941.192 360.661 941.947 360.898C943.635 361.313 945.194 361.442 946.542 361.506C948.239 361.585 951.605 362.178 952.355 362.524C953.224 362.925 954.99 363.814 956.042 364.358C957.093 364.902 958.356 365.504 958.879 365.86C959.2 366.078 960.039 366.256 960.651 366.364C961.559 366.528 961.806 367.729 961.026 368.218C960.291 368.682 959.057 368.5 958.292 368.381C956.13 368.05 953.091 366.33 953.056 366.661C953.021 366.992 956.91 371.45 957.325 371.989C957.739 372.528 962.23 377.732 962.768 379.032C963.306 380.332 962.59 380.875 961.845 380.564C961.204 380.297 954.462 373.561 954.462 373.561C954.462 373.561 953.599 372.706 953.559 373.353C953.515 374.001 959.625 380.124 960.365 381.207C961.105 382.289 961.09 383.362 959.861 383.268C958.361 383.154 952.247 376.22 952.247 376.22C952.247 376.22 951.467 375.365 951.24 375.809C951.013 376.254 956.298 381.38 956.545 382.076C956.797 382.773 956.362 383.663 955.257 383.347C953.954 382.976 948.545 376.734 948.545 376.734C948.545 376.734 948.002 376.378 947.973 376.749C947.943 377.119 952.138 381.81 952.182 382.665C952.222 383.381 951.58 383.426 951.58 383.426C950.238 383.821 946.788 378.696 944.503 376.847C942.219 374.999 940.526 371.851 937.565 369.943C937.382 369.829 936.918 369.542 936.627 369.36Z" fill="#F9D2BD"/>
<path d="M886.811 315.26L910.07 308.261C910.07 308.261 906.506 288.141 903.338 280.159C894.49 257.868 877.809 262.821 875.707 267.462C871.008 277.851 886.811 315.26 886.811 315.26Z" fill="#F7F7F7"/>
<path d="M898.956 287.057C899.439 290.438 905.569 383.628 905.569 383.628C863.596 404.178 843.165 385.99 843.165 385.99C843.165 385.99 844.537 321.462 842.893 312.679C841.803 306.867 840.445 268.256 844.161 267.174C848.929 265.785 854.397 264.312 860.353 263.685C865.437 263.151 885.197 262.839 888.73 264.04C888.73 264.04 896.927 272.843 898.956 287.057Z" fill="#EEEEEE"/>
<path d="M991.323 327.325L882.893 315.309L874.755 388.796L983.186 400.812L991.323 327.325Z" fill="#F7CC7F"/>
<path opacity="0.6" d="M921.253 319.562L882.891 315.311L874.753 388.798L913.115 393.049L921.253 319.562Z" fill="#FFDBC7"/>
<path d="M966.747 324.608L943.586 322.038L942.504 331.819L965.665 334.388L966.747 324.608Z" fill="#DD2D2D"/>
<path d="M818.071 553.786C818.071 553.786 813.797 557.978 813.699 559.52C813.6 561.057 813.319 577.54 815.066 579.082C816.813 580.624 821.94 581.711 820.292 583.441C819.048 584.751 809.459 584.469 803.108 584.118C801.252 584.014 798.928 569.147 798.193 566.963C797.127 563.79 794.531 556.643 795.503 554.429C795.977 553.351 798.237 551.137 801.42 549.066C804.771 546.892 807.974 542.048 807.974 542.048L818.071 553.786Z" fill="#F9D2BD"/>
<path d="M862.363 563.552C862.363 563.552 858.538 574.416 858.533 574.44C858.247 576.16 857.127 580.411 857.127 581.977C857.127 587.854 883.505 576.991 877.593 574.386C877.06 574.149 875.377 572.266 875.204 570.269C874.933 567.185 877.425 563.32 877.425 563.32L862.363 563.552Z" fill="#FFDBC7"/>
<path d="M903.737 361.283C903.737 361.283 905.662 380.756 905.662 381.048C905.662 412.546 911.875 474.074 910.696 480C907.814 494.447 876.787 568.129 876.787 568.129L860.018 566.112L881.87 477.89L873.831 442.378L862.451 372.186L903.737 361.283Z" fill="#99D7FB"/>
<path d="M801.627 548.963C801.627 548.963 811.482 576.843 815.336 578.192C816.363 578.548 821.273 579.458 822.201 581.642C822.482 582.3 822.201 584.499 822.201 584.499H801.661C801.661 584.499 799.065 572.212 798.039 566.815C798.039 566.815 792.6 553.628 793.207 552.427C793.81 551.231 801.627 548.963 801.627 548.963Z" fill="white"/>
<path d="M855.627 583.915L858.647 574.327C858.647 574.327 864.989 577.025 868.162 576.576C871.335 576.126 877.524 574.327 877.524 574.327C890.182 578.513 900.556 580.544 898.666 583.915H855.627Z" fill="white"/>
<path d="M866.024 243.816L863.014 263.774C863.014 263.774 874.019 287.537 880.588 285.476C886.1 283.746 882.71 262.721 882.71 262.721C882.71 262.721 879.704 251.432 880.607 245.778C881.51 240.124 866.024 243.816 866.024 243.816Z" fill="#FFDBC7"/>
<path d="M880.599 245.779C881.503 240.129 866.021 243.816 866.021 243.816L865.77 245.472C866.224 246.579 866.776 247.528 867.448 248.255C870.902 251.991 876.311 254.24 880.979 254.408C880.521 251.363 880.234 248.097 880.599 245.779Z" fill="#F3C8AF"/>
<path d="M863.48 215.587C863.041 215.429 859.976 238.317 865.799 244.614C871.623 250.91 882.969 252.971 887.04 248.014C891.541 242.528 891.314 217.929 882.263 211.45C873.207 204.97 863.48 215.587 863.48 215.587Z" fill="#FFDBC7"/>
<path d="M878.815 199.202C871.817 200.635 867.282 204.935 865.619 206.763C862.441 207.139 858.122 208.904 853.661 216.327C848.178 225.451 852.225 235.563 858.611 240.52C864.997 245.482 864.908 251.211 864.908 251.211L865.915 248.245C866.66 246.001 866.966 243.619 866.714 241.267C866.566 239.853 866.265 238.326 865.683 237.07C864.148 233.759 868.98 231.555 870.337 228.802C871.378 226.681 871.432 221.823 873.076 218.319L875.04 215.64C875.04 215.64 879.57 212.096 884.002 213.1C888.434 214.103 887.797 197.363 878.815 199.202Z" fill="#181818"/>
<path d="M870.033 232.88C870.078 235.672 868.814 237.96 867.21 237.985C865.607 238.015 864.269 235.771 864.22 232.978C864.175 230.186 865.439 227.898 867.043 227.873C868.652 227.843 869.989 230.087 870.033 232.88Z" fill="#FFDBC7"/>
<path d="M879.496 239.33L888.276 238.875C888.276 238.875 888.246 242.236 884.392 242.547C879.689 242.928 879.496 239.33 879.496 239.33Z" fill="white"/>
<path d="M898.999 287.059C896.951 272.845 888.68 264.047 888.68 264.047C888.261 263.904 887.614 263.785 886.795 263.686C890.289 268.199 895.012 279.804 896.117 283.278C897.371 287.227 898.915 308.361 898.915 308.361C894.883 310.649 876.091 310.377 876.091 310.377C876.091 310.377 873.89 291.532 871.2 282.759C868.51 273.991 860.052 263.686 860.052 263.686C858.813 263.815 857.594 263.983 856.4 264.176C859.001 267.403 867.222 278.128 868.876 286.866C870.845 297.275 879.812 332.989 868.876 336.493C863.457 338.228 852.718 338.045 843.258 337.007C843.292 350.545 843.07 366.42 842.902 376.344L835.663 472.924L802.879 547.159C802.879 547.159 807.493 557.964 814.294 559.481L866.472 483.264L898.526 386.822C900.835 385.878 903.214 384.825 905.667 383.634C905.672 383.624 899.488 290.44 898.999 287.059Z" fill="#A5DAF9"/>
<path d="M898.81 372.745C898.642 372.641 898.489 372.518 898.346 372.379C893.825 367.862 855.875 329.934 854.68 327.809C853.604 325.891 842.357 286.144 842.357 286.144L861.96 287.216L871.075 324.047C872.244 325.664 894.926 354.859 894.926 354.859C894.926 354.859 898.943 360.325 901.509 363.404C902.457 363.74 903.365 364.047 904.12 364.284C905.808 364.699 907.367 364.827 908.714 364.892C910.412 364.971 913.778 365.564 914.528 365.91C915.397 366.31 917.163 367.2 918.214 367.743C919.271 368.292 920.529 368.89 921.052 369.246C921.373 369.463 922.212 369.641 922.824 369.75C923.732 369.913 923.979 371.114 923.199 371.604C922.464 372.068 921.23 371.885 920.465 371.767C918.303 371.435 915.263 369.716 915.229 370.047C915.194 370.378 919.088 374.836 919.498 375.375C919.912 375.913 924.403 381.118 924.941 382.418C925.479 383.717 924.763 384.261 924.018 383.95C923.377 383.683 916.635 376.946 916.635 376.946C916.635 376.946 915.772 376.091 915.732 376.739C915.693 377.386 921.797 383.51 922.538 384.592C923.278 385.675 923.263 386.747 922.034 386.653C920.534 386.54 914.419 379.605 914.419 379.605C914.419 379.605 913.64 378.75 913.413 379.195C913.186 379.64 918.471 384.765 918.718 385.462C918.969 386.159 918.535 387.044 917.43 386.727C916.127 386.357 910.718 380.114 910.718 380.114C910.718 380.114 910.175 379.759 910.146 380.129C910.121 380.5 914.311 385.19 914.36 386.045C914.4 386.762 913.758 386.806 913.758 386.806C912.416 387.202 908.966 382.077 906.681 380.228C904.396 378.38 902.704 375.231 899.742 373.323C899.56 373.215 899.101 372.928 898.81 372.745Z" fill="#FFDBC7"/>
<path d="M849.166 318.37L872.43 311.371C872.43 311.371 868.867 291.251 865.699 283.269C856.85 260.978 840.17 265.931 838.067 270.572C833.359 280.956 849.166 318.37 849.166 318.37Z" fill="#F7F7F7"/>
<path d="M746.307 256.869C746.307 260.013 747.478 262.564 748.927 262.564C750.377 262.564 751.547 260.013 751.547 256.869C751.547 253.726 750.377 251.174 748.927 251.174C747.478 251.174 746.307 253.726 746.307 256.869Z" fill="#FFDBC7"/>
<path d="M668.596 576.787L683.198 619.288L677.94 621.237L674.902 614.464L675.894 622.164H674.434L672.917 617.34L673.034 627.401C673.034 627.401 660.886 627.401 655.049 625.759V618.574L653.181 625.452L651.33 624.559C651.33 624.559 652.25 616.111 652.133 616.625C652.016 617.139 650.617 621.041 650.617 621.041L648.632 620.757L649.452 614.576L647.233 620.427L645.131 619.4L655.874 576.798L661.483 571.36L668.596 576.787Z" fill="#F7CC7F"/>
<path d="M662.834 583.911C664.524 583.911 665.89 582.147 665.89 579.964V253.502C665.89 251.324 664.518 249.554 662.834 249.554C661.145 249.554 659.779 251.319 659.779 253.502V579.964C659.779 582.141 661.145 583.911 662.834 583.911Z" fill="#184655"/>
<path d="M721.607 626.022C722.287 621.12 722.504 613.594 722.432 604.9H739.575C737.791 617.206 736.397 626.782 736.397 626.782L736.821 630.673L736.832 642.158H699.334C699.334 642.158 707.295 638.585 718.429 631.528C719.248 631.003 721.149 629.339 721.607 626.022Z" fill="#FFDBC7"/>
<path d="M794.713 623.135L789.729 608.836H802.774C803.454 618.015 803.705 624.212 803.705 624.212L807.022 633.615L810.39 644.787C810.39 644.787 799.29 647.652 793.469 644.43L794.116 633.308L794.713 623.135Z" fill="#FFDBC7"/>
<path d="M727.029 312.29C731.556 306.093 750.227 288.148 752.3 288.187C758.349 288.293 778.197 288.299 782.072 290.275L781.888 324.44C781.258 327.31 767.554 371.971 768.351 381.754L768.256 381.843C756.772 392.948 738.664 392.077 728.16 379.911C728.16 379.911 728.205 366.36 726.588 354.004C724.052 334.641 715.789 327.678 727.029 312.29Z" fill="#B7E4FF"/>
<path d="M769.991 294.356C769.685 296.093 764.478 321.872 764.478 321.872C764.478 321.872 759.901 355.015 757.442 359.001C755.307 362.463 732.906 362.457 726.991 362.396C726.773 359.649 726.495 356.796 726.132 353.998C723.601 334.635 715.333 327.678 726.578 312.29C731.01 306.227 749.001 288.896 751.694 288.209C751.794 288.192 751.844 288.187 751.844 288.187C751.844 288.187 770.298 292.62 769.991 294.356Z" fill="#F1F1F1"/>
<path d="M758.381 268.956C758.381 268.956 757.857 281.558 758.988 286.337C760.12 291.116 761.625 291.479 751.925 292.931C748.111 293.501 744.438 294.355 744.438 294.355C744.438 294.355 745.435 287.336 745.586 284.377C745.831 279.497 744.465 264.433 744.465 264.433L758.381 268.956Z" fill="#FFDBC7"/>
<path d="M750.995 275.228C748.999 276.311 747.131 276.948 745.414 277.21C745.085 271.258 744.461 264.43 744.461 264.43L757.741 268.746C756.202 271.325 754.011 273.598 750.995 275.228Z" fill="#F3C8AF"/>
<path d="M794.129 633.263C799.253 635.546 804.766 634.167 806.98 633.441L807.716 635.429L810.542 644.859C810.542 644.859 799.303 647.651 793.482 644.435L794.129 633.263Z" fill="white"/>
<path d="M737.224 645.006H698.237C696.794 644.878 696.442 643.694 696.944 642.968C697.976 641.472 702.519 640.372 707.632 637.988C716.596 638.937 735.412 632.734 736.828 630.651C737.648 634.822 738.027 644.828 737.224 645.006Z" fill="white"/>
<path d="M740.174 382.407L763.021 545.174L783.827 620.227H806.462C806.462 620.227 801.21 559.764 789.948 538.34C789.948 538.34 785.031 480.943 780.114 445.84C779.378 440.592 783.019 426.974 782.071 423.456C774.773 396.399 768.345 381.754 768.345 381.754L740.174 382.407Z" fill="#A5DAF9"/>
<path d="M754.301 452.781L749.01 515.309C749.01 515.309 754.412 551.043 750.705 574.75C746.997 598.457 742.08 620.221 742.08 620.221H721.274L717.137 502.144C717.137 502.144 709.137 437.985 711.908 420.587C714.678 403.189 728.148 379.912 728.148 379.912L760.879 381.408C760.879 381.408 769.755 413.256 768.255 423.948C767.146 431.888 754.301 452.781 754.301 452.781Z" fill="#B7E4FF"/>
<path d="M653.252 586.63L655.555 570.617L659.931 564.76H662.211H663.466H665.746L670.122 570.617L672.257 586.759C668.985 584.989 656.525 584.86 653.252 586.63Z" fill="#184655"/>
<path d="M652.712 308.119C651.814 307.159 651.719 306.333 652.126 305.668C652.528 305.004 653.336 304.602 653.403 304.468C653.475 304.334 653.252 303.982 653.252 303.982C652.656 303.39 652.963 302.29 653.347 301.805C653.732 301.319 654.819 300.928 655.287 301.006C655.756 301.084 655.884 300.906 655.884 300.906C656.018 300.107 657.824 298.6 658.733 298.834C659.636 299.063 662.585 301.81 663.003 301.927C663.421 302.045 664.219 302.179 664.648 302.57C665.077 302.96 669.192 304.853 669.799 305.412C670.413 305.964 671.277 308.851 672.135 310.291C672.994 311.732 673.423 314.741 673.602 315.557C673.708 316.037 675.085 317.36 676.211 318.371C677.125 319.219 705.396 341.709 713.48 349.532L726.247 320.894L746.819 324.501C747.065 324.373 733.038 368.208 719.63 369.978C704.8 371.932 671.728 329.917 668.422 325.635C667.408 324.853 666.387 324.099 666.17 324.027C665.718 323.876 663.366 322.206 663.187 322.039C663.009 321.871 661.927 321.553 661.476 321.402C661.024 321.252 656.949 317.287 656.263 316.668C655.577 316.048 654.563 314.205 654.563 314.205L651.953 311.442C650.041 309.42 652.712 308.119 652.712 308.119Z" fill="#FFDBC7"/>
<path d="M759.47 302.19C762.28 313.77 747.305 339.582 747.305 339.582C747.305 339.582 725.975 329.504 722.223 325.16C722.223 325.16 736.718 300.113 737.666 298.588C741.964 291.693 747.807 291.687 751.609 292.134C754.664 292.491 759.47 302.19 759.47 302.19Z" fill="#F7F7F7"/>
<path d="M786.479 345.539C811.216 338.102 804.593 316.266 804.453 317.092C804.526 316.416 806.856 313.669 808.01 311.319C812.816 301.525 806.477 289.733 799.218 285.657C804.03 273.206 799.252 261.258 790.187 256.283C785.61 253.771 781.763 250.197 778.669 246.065C771.806 236.897 759.323 227.663 744.315 230.678C729.468 234.48 749.344 243.095 747.376 257.405C746.378 264.658 749.243 263.62 753.72 269.449C747.281 280.783 751.005 299.811 760.878 308.438C756.039 328.862 761.241 353.127 786.479 345.539Z" fill="#FFE6BF"/>
<path d="M768.098 245.708C771.019 257.78 755.203 266.54 742.681 266.864C734.541 267.07 730.801 266.233 729.485 257.646C727.35 243.715 733.081 235.217 741.115 231.705C751.479 227.166 765.69 235.753 768.098 245.708Z" fill="#FFE6BF"/>
<path d="M749.706 237.59C749.706 237.59 755.214 239.444 758.147 245.011C761.079 250.577 759.624 268.405 747.415 274.284C735.205 280.164 729.591 266.814 730.477 256.959C731.364 247.11 734.898 234.218 749.706 237.59Z" fill="#FFDBC7"/>
<path d="M742.08 265.032L733.416 264.898C733.416 264.898 733.567 268.26 737.374 268.427C742.018 268.639 742.08 265.032 742.08 265.032Z" fill="white"/>
<path d="M762.491 258.505C764.297 249.293 763.589 242.308 757.055 238.935C750.521 235.563 744.929 232.219 739.081 238.282L737.76 239.03C737.76 239.03 748.798 242.084 749.412 247.958C750.03 253.826 755.895 260.806 754.992 263.692C754.089 266.579 753.047 272.324 753.047 272.324L755.466 270.331C755.461 270.331 760.684 267.718 762.491 258.505Z" fill="#FFE6BF"/>
<path d="M751.109 254.976C750.195 257.523 750.886 260.074 752.648 260.683C754.409 261.291 756.578 259.717 757.487 257.176C758.396 254.636 757.71 252.079 755.948 251.47C754.186 250.861 752.018 252.43 751.109 254.976Z" fill="#FFDBC7"/>
<path d="M638.933 580.714C638.983 579.76 640.477 557.264 662.895 557.264C685.307 557.264 686.801 579.76 686.857 580.714L689.471 580.575C689.46 580.318 687.815 554.64 662.895 554.64C637.974 554.64 636.335 580.318 636.318 580.575L638.933 580.714Z" fill="#A5DAF9"/>
<path d="M691.354 578.766L682.406 645.008H663.512H662.279H643.386L634.438 578.766H691.354Z" fill="white"/>
<path d="M630.217 582.992H695.295V578.291H630.217V582.992Z" fill="#C5DFFF"/>
<path d="M358.819 183.28C358.828 178.9 361.175 175.046 364.825 172.365C369.796 168.71 376.39 168.043 382.08 170.428C397.961 177.08 406.178 178.784 404.322 194.941C403.865 198.912 401.445 202.401 400.551 206.295C393.704 236.117 363.731 230.754 360.286 215.123C347.137 200.236 358.77 200.518 358.819 183.28Z" fill="#F1FFEC"/>
<path opacity="0.3" d="M400.553 197.496C393.706 227.318 363.734 221.955 360.288 206.324C357.62 203.307 355.973 200.907 355.045 198.863C353.325 203.321 353.048 206.918 360.288 215.118C363.734 230.754 393.706 236.117 400.553 206.29C401.447 202.397 403.872 198.907 404.324 194.936C404.698 191.68 404.654 189.018 404.232 186.775C403.61 190.493 401.399 193.812 400.553 197.496Z" fill="#B4D3AC"/>
<path d="M372.157 178.151C373.877 178.117 372.657 186.04 374.086 186.95C375.514 187.865 378.877 178.025 380.364 178.117C383.1 178.297 377.346 189.121 378.6 189.281C379.854 189.442 386.341 178.575 387.95 180.507C389.558 182.444 380.048 191.077 381.317 191.851C382.585 192.625 389.437 183.023 392.386 184.205C393.961 184.838 378.595 199.126 378.809 201.438C379.018 203.75 387.969 202.037 388.562 204.017C389.155 205.998 372.132 205.803 371.219 206.733C370.305 207.663 347.335 229.981 342.446 237.67C344.92 239.612 362.316 251.277 364.673 253.054C359.785 256.66 360.319 264.295 355.674 268.15C348.015 261.731 320.783 244.245 321.332 240.381C323.359 226.112 355.28 204.47 361.267 200.051C367.258 195.627 367.011 191.89 369.586 188.41C372.162 184.945 370.436 178.185 372.157 178.151Z" fill="#FFDBC7"/>
<path d="M427.004 324.218C426.61 325.575 426.382 326.028 425.881 326.943C422.65 332.836 415.152 341.241 415.152 341.241L409.35 328.15C409.35 328.15 410.297 324.038 411.935 318.164C417.538 319.633 422.873 320.48 427.004 324.218Z" fill="#FFDBC7"/>
<path d="M394.064 313.024C394.064 313.024 426.418 326.977 427.463 326.709C428.138 326.539 440.734 305.418 440.87 285.562C440.933 276.388 431.423 265.356 420.81 267.541C415.47 268.641 415.553 270.13 407.646 281.63C399.74 293.13 394.064 313.024 394.064 313.024Z" fill="white"/>
<path d="M366.124 563.038C366.124 563.038 366.892 575.764 366.897 575.788C367.179 577.404 368.291 581.394 368.291 582.864C368.291 588.383 342.128 578.182 347.994 575.735C348.523 575.511 351.303 573.837 351.478 571.963C351.745 569.067 352.43 563.218 352.43 563.218L366.124 563.038Z" fill="#FFDBC7"/>
<path d="M348.057 575.686C348.057 575.686 354.199 577.375 357.343 577.794C360.487 578.217 364.637 574.664 366.863 575.623C369.312 576.679 369.069 587.105 369.069 587.105C369.069 587.105 337.239 587.105 327.854 587.105C324.185 585.995 335.496 579.619 348.057 575.686Z" fill="white"/>
<path d="M419.645 563.038C419.645 563.038 420.413 575.764 420.418 575.788C420.7 577.404 421.813 581.394 421.813 582.864C421.813 588.383 395.65 578.182 401.515 575.735C402.045 575.511 405.651 572.591 405.825 570.712C406.093 567.817 405.952 563.213 405.952 563.213L419.645 563.038Z" fill="#FFDBC7"/>
<path d="M417.216 246.615L420.18 265.405C420.18 265.405 408.878 274.495 402.288 272.578C396.758 270.967 400.553 263.73 400.553 263.73C400.553 263.73 403.498 253.7 402.594 248.444C401.69 243.184 417.216 246.615 417.216 246.615Z" fill="#FFDBC7"/>
<path d="M415.085 252.294C412.252 253.633 406.649 255.463 402.295 255.906C402.713 253.278 402.951 250.494 402.596 248.44C402.178 246.012 405.264 245.442 408.7 245.525C413.199 245.91 417.213 246.615 417.213 246.615L417.782 250.226C416.927 251.131 416.028 251.852 415.085 252.294Z" fill="#FE875E"/>
<path d="M431.472 224.944C431.939 224.944 427.007 245.933 419.368 249.544C411.729 253.155 400.343 251.272 398.205 245.622C395.844 239.368 404.464 217.955 415.203 215.239C425.947 212.519 431.472 224.944 431.472 224.944Z" fill="#FFDBC7"/>
<path d="M422.643 205.662C428.741 209.185 431.54 214.412 432.483 216.549C435.345 217.906 438.81 220.851 440.472 228.783C442.517 238.531 435.248 246.045 427.541 248.308C419.834 250.566 418.643 255.676 418.643 255.676L417.769 250.182C417.769 250.182 419.484 245.398 422.059 243.004C424.64 240.609 420.84 237.12 420.504 234.273C420.247 232.083 421.86 227.825 421.51 224.228C421.51 224.228 417.229 217.731 413.006 216.125C405.815 213.376 414.814 201.141 422.643 205.662Z" fill="#F7CC7F"/>
<path d="M413.716 362.309C413.716 362.309 418.148 383.776 416.345 400.054C414.542 416.333 414.397 474.154 414.397 474.154L421.292 566.668L404.931 567.023C404.931 567.023 385.532 474.553 385.891 476.928C386.251 479.303 379.385 411.817 379.385 411.817L402.511 360.27L413.716 362.309Z" fill="#99D5F8"/>
<path d="M409.383 361.291C409.383 361.291 412.275 380.621 408.659 389.099C405.044 397.577 377.661 480.757 377.302 487.541C376.942 494.325 367.836 569.286 367.836 569.286L348.811 568.75L344.695 485.405L353.311 380.651L361.679 354.166L409.383 361.291Z" fill="#A5DAF9"/>
<path d="M420.18 265.405C420.18 265.405 415.491 268.486 411.112 268.13C406.739 267.775 400.553 263.731 400.553 263.731L401.413 260.811C401.413 260.811 412.73 259.161 413.017 259.336C413.304 259.517 420.18 265.405 420.18 265.405Z" fill="#FFDBC7"/>
<path d="M358.792 330.772C361.29 317.165 379.391 274.821 380.835 267.02C381.539 263.229 391.302 263.141 400.603 263.637C410.423 264.158 420.181 265.404 420.181 265.404C420.181 265.404 428.879 266.835 432.704 270.426C436.528 274.018 437.544 283.946 432.048 302.794C427.708 317.672 422.324 325.843 419.661 336.681C419.122 340.316 418.66 343.903 418.048 348.093C417.071 364.299 397.016 363.316 397.016 363.316C397.016 363.316 379.941 384.291 362.233 369.37C362.228 369.375 356.232 344.711 358.792 330.772Z" fill="#F1F1F1"/>
<path d="M351.505 239.111C351.505 239.111 338.729 259.561 338.87 260.636C338.963 261.327 361.155 284.473 377.395 288.347C386.376 290.488 401.726 273.859 400.662 266.029C399.928 260.602 351.505 239.111 351.505 239.111Z" fill="#F7F7F7"/>
<path d="M432.703 270.423C431.76 269.542 430.526 268.788 429.199 268.155C435.409 274.078 429.034 302.898 427.741 303.905C426.444 304.912 405.84 304.353 405.281 302.031C404.275 297.851 406 291.218 407.73 279.105C408.897 270.939 406.919 266.184 405.51 263.95C403.906 263.828 402.259 263.721 400.606 263.634C400.606 263.634 410.043 270.943 392.511 320.68C391.072 324.763 373.904 322.938 361.09 322.199C360.011 325.625 359.2 328.574 358.796 330.769C356.235 344.712 353.014 380.618 353.014 380.618C370.721 395.539 416.647 385.976 416.647 385.976C416.647 385.976 417.07 364.295 418.052 348.089C418.664 343.899 419.126 340.312 419.665 336.677C422.328 325.839 427.712 317.668 432.051 302.791C437.547 283.942 436.527 274.014 432.703 270.423Z" fill="#A5DAF9"/>
<path d="M417.782 216.524C417.782 216.524 420.032 218.364 419.206 221.191C418.38 224.019 412.762 231.951 413.627 235.557C414.492 239.164 412.787 253.311 418.642 255.671C418.642 255.671 420.285 246.945 420.61 246.945C420.936 246.945 425.236 244.673 425.596 242.891C425.956 241.105 425.956 234.351 426.009 234.078C426.062 233.805 424.226 218.719 424.226 218.719L417.782 216.524Z" fill="#F7CC7F"/>
<path d="M411.949 232.131C410.953 234.555 411.361 236.964 412.863 237.509C414.364 238.054 416.39 236.531 417.387 234.107C418.383 231.684 417.975 229.275 416.473 228.735C414.972 228.185 412.945 229.708 411.949 232.131Z" fill="#FFDBC7"/>
<path d="M402.925 574.318C402.925 574.318 407.735 577.675 410.857 578.238C413.233 576.603 417.102 573.519 420.077 576.888C422.475 578.055 421.501 586.278 421.501 586.278C421.501 586.278 411.506 586.297 400.488 585.061C389.471 583.826 386.206 582.2 386.206 582.2C386.206 582.2 384.982 576.888 402.925 574.318Z" fill="white"/>
<path d="M503.862 464.906L427.395 465.075L427.544 532.512L504.012 532.342L503.862 464.906Z" fill="#F9D293"/>
<path opacity="0.5" d="M454.45 465.01L427.395 465.07L427.544 532.507L454.6 532.447L454.45 465.01Z" fill="#E5644E"/>
<path d="M486.54 464.943L470.205 464.979L470.225 473.957L486.56 473.921L486.54 464.943Z" fill="#DD2D2D"/>
<path d="M511.442 530.338H410.455V634.68H511.442V530.338Z" fill="#F7CC7F"/>
<path opacity="0.6" d="M435.543 530.338H410.455V634.68H435.543V530.338Z" fill="#FFDBC7"/>
<path d="M480.248 530.337H470.18V561.012H480.248V530.337Z" fill="#DD2D2D"/>
<path d="M599.075 340.029C591.526 344.228 575.52 352.96 568.825 354.697C567.754 351.776 560.105 336.316 559.163 333.558C554.29 337.059 548.621 337.84 543.592 341.028C547.277 350.185 559.91 372.72 562.458 373.864C568.501 376.572 587.936 362.033 599.081 353.429V340.029H599.075Z" fill="#F9D2BD"/>
<path d="M511.001 318.822C522.424 311.122 528.802 291.781 523.573 279.118C528.997 273.63 531.852 275.092 531.763 267.398C531.584 252.228 553.439 245.863 538.458 239.945C523.21 234.83 508.988 242.809 500.631 251.469C496.868 255.372 492.386 258.588 487.285 260.603C477.182 264.601 470.632 276.421 474.021 290.034C465.921 293.328 457.77 304.791 461.489 315.628C462.381 318.23 464.449 321.401 464.438 322.116C464.404 321.234 454.637 343.126 479.446 354.131C504.762 365.359 513.365 340.748 511.001 318.822Z" fill="#181818"/>
<path d="M494.211 337.94L497.049 365.104C497.049 365.104 501.33 376.639 505.829 374.188C510.334 371.737 520.263 368.688 524.946 359.939C529.63 351.19 532.523 359.738 532.194 345.701C531.865 331.665 538.165 333.295 531.257 326.986C524.35 320.677 532.021 316.986 520.263 319.136C508.505 321.302 494.211 337.94 494.211 337.94Z" fill="#EEEEEE"/>
<path d="M520.078 610.177C520.078 610.177 521.316 625.989 520.312 631.126C519.772 633.879 516.772 639.54 518.149 642.131C519.526 644.722 521.098 645.369 521.098 645.369L556.762 645.95C558.702 645.984 557.42 644.722 555.854 643.56C553.289 641.662 551.221 640.406 543.031 636.419C542.496 636.157 540.55 634.912 539.853 634.482C538.075 633.387 536.291 631.668 534.752 629.943C532.193 627.073 531.97 613.148 531.97 613.148L520.078 610.177Z" fill="#FFDBC7"/>
<path d="M539.843 634.481C530.41 636.921 523.442 635.263 519.539 633.677C518.535 636.547 517.197 640.149 517.905 642.226C518.77 644.766 520.002 645.341 521.094 645.375C529.708 645.604 552.649 645.911 559.222 646C560.142 646.011 560.644 644.934 560.059 644.224C558.425 642.259 540.546 634.911 539.843 634.481Z" fill="white"/>
<path d="M459.662 603.761C459.662 603.761 457.655 617.786 454.204 622.309C453.045 623.828 450.926 625.748 449.538 628.495C447.375 632.767 448.574 639.132 450.168 642.632C450.988 644.43 450.112 644.425 451.974 645.005C457.499 646.72 463.375 643.833 465.728 638.501C467.044 635.525 468.192 631.555 468.427 626.552C469.017 613.822 472.948 607.345 472.948 607.345L459.662 603.761Z" fill="#FFDBC7"/>
<path d="M547.949 399.99C547.949 399.99 552.443 425.662 549.494 442.496C546.544 459.33 532.395 615.342 532.395 615.342L516.667 616.235C516.667 616.235 513.373 551.066 513.964 541.998C514.554 532.936 519.221 517.766 519.221 517.766L517.654 465.148L537.502 396.02L547.949 399.99Z" fill="#99D5F8"/>
<path d="M466.791 635.703C458.222 637.278 452.524 632.23 449.558 628.45C447.378 632.733 446.319 639.12 447.919 642.638C449.33 645.736 453.45 645.647 456.7 645.77C460.134 645.898 462.788 643.978 464.488 640.968C465.285 639.556 466.105 637.808 466.791 635.703Z" fill="white"/>
<path d="M545.078 351.934C545.078 351.934 527.121 333.492 522.499 325.479C517.877 317.467 525.649 322.682 533.582 320.577C536.587 319.779 535.829 302.141 541.51 307.875C550.831 317.277 562.545 333.726 562.545 333.726L545.078 351.934Z" fill="#F6F6F6"/>
<path d="M550.821 341.648C549.461 332.693 543.322 310.465 541.505 307.869C539.504 305.01 519.545 299.778 519.545 299.778C519.545 299.778 503.427 296.59 496.074 302.749C492.294 305.915 492.818 321.911 494.217 337.941L550.821 341.648Z" fill="#F5F5F5"/>
<path d="M524.468 277.255C524.468 277.255 524.384 277.735 524.228 278.556C523.497 282.497 521.44 296.188 519.539 299.778C517.242 304.122 526.647 317.349 536.432 315.657C539.347 315.155 533.967 302.933 534.23 301.637C534.726 299.158 535.395 295.78 536.08 292.313C536.465 290.359 536.861 288.377 537.229 286.512C538.277 281.219 539.13 276.886 539.13 276.886L524.468 277.255Z" fill="#FFDBC7"/>
<path d="M524.227 278.557C524.378 277.736 524.467 277.256 524.467 277.256L539.13 276.893C539.13 276.893 538.276 281.225 537.228 286.519C536.86 288.372 536.47 290.343 536.085 292.286C533.822 291.951 531.458 290.851 529.083 288.78C526.496 286.519 524.801 283.799 523.781 280.896C523.965 279.969 524.116 279.171 524.227 278.557Z" fill="#F3C8AF"/>
<path d="M532.951 266.981C532.539 270.258 530.983 272.76 529.473 272.57C527.962 272.38 527.075 269.566 527.488 266.289C527.9 263.011 529.456 260.51 530.967 260.7C532.478 260.889 533.364 263.704 532.951 266.981Z" fill="#FFDBC7"/>
<path d="M511.698 252.481C507.071 264.681 522.408 275.892 535.42 277.874C543.878 279.164 547.886 278.779 550.384 270.002C554.437 255.759 549.576 246.149 541.665 241.431C531.457 235.334 515.517 242.42 511.698 252.481Z" fill="#181818"/>
<path d="M531.935 246.434C531.935 246.434 525.953 247.646 522.162 253.061C518.371 258.477 517.557 277.254 529.516 284.993C541.474 292.732 549.073 279.549 549.441 269.158C549.809 258.768 547.813 244.871 531.935 246.434Z" fill="#FFDBC7"/>
<path d="M536.294 276.042L545.342 277.041C545.342 277.041 544.745 280.525 540.754 280.202C535.887 279.811 536.294 276.042 536.294 276.042Z" fill="white"/>
<path d="M515.876 266.557C515.202 256.713 516.852 249.527 524.111 246.875C531.364 244.217 537.63 241.47 542.932 248.556L544.215 249.51C544.215 249.51 532.306 251.241 530.896 257.283C529.485 263.324 527.534 270.627 526.029 274.775C524.947 277.762 523.436 282.503 523.436 282.503L521.652 279.812C521.647 279.806 516.551 276.4 515.876 266.557Z" fill="#181818"/>
<path d="M529.105 268.036C529.723 270.811 528.67 273.379 526.752 273.781C524.834 274.183 522.782 272.257 522.164 269.487C521.545 266.712 522.598 264.144 524.516 263.742C526.434 263.34 528.486 265.266 529.105 268.036Z" fill="#FFDBC7"/>
<path d="M502.327 299.891C502.127 300.566 502.004 300.957 502.004 300.957L503.253 299.684C502.941 299.751 502.634 299.818 502.327 299.891Z" fill="#A5DAF9"/>
<path d="M551.089 344.016C550.76 337.494 543.217 310.755 541.517 307.712C540.853 306.529 540.413 306.289 538.991 306.188C542.481 316.836 545.074 332.692 545.074 332.692C538.674 333.915 529.558 332.692 529.558 332.692C521.998 315.2 519.373 307.31 515.319 299.181C515.319 299.181 515.041 298.963 514.455 298.79C513.803 298.589 513.106 298.567 512.437 298.678L510.72 298.958C510.72 298.958 527.914 335.557 526.442 341.648C525.176 346.886 511.829 362.206 497.061 365.11C497.423 368.599 497.663 371.296 497.663 372.77C497.658 381.843 492.612 411.206 492.612 411.206C489.986 416.806 487.533 423.121 486.424 428.984C483.475 444.523 488.587 492.266 482.917 512.629C479.845 523.651 468.21 540.669 466.443 554.912C464.675 569.155 457.734 606.458 457.734 606.458L473.456 609.596L509.99 516.426L538.646 432.217L542.169 411.413C545.252 410.246 547.638 408.616 548.915 406.377C548.893 406.371 551.418 350.537 551.089 344.016Z" fill="#A5DAF9"/>
<path d="M596.594 334.033L597.926 334.234C599.047 329.812 600.658 324.982 602.983 320.024C611.764 301.281 609.612 298.355 621.269 287.573C632.927 276.792 637.509 251.465 637.509 251.465C637.509 251.465 646.608 223.286 643.815 209.852C641.027 196.413 642.588 183.638 633.2 168.451C633.2 168.451 628.294 186.112 624.335 193.873C620.372 201.639 616.603 209.059 615.649 228.992C614.691 248.925 615.7 250.751 615.387 255.91C615.075 261.069 611.1 282.409 611.652 286.11C612.204 289.818 601.048 313.218 598.902 323.676C598.255 326.825 597.413 330.387 596.594 334.033Z" fill="#215E4B"/>
<path d="M601.619 330.348C603.47 327.389 606.363 324.608 610.873 323.363C622.676 320.102 630.119 321.342 637.048 310.265C643.978 299.181 646.437 282.973 648.723 279.88C648.723 279.88 644.107 278.366 638.08 286.15C632.053 293.933 627.883 299.768 624.393 304.296C620.909 308.824 617.168 306.836 613.243 310.086C609.953 312.805 606.246 319.734 604.696 323.302C604.194 324.463 603.548 325.552 602.773 326.546C602.065 327.45 601.223 328.55 600.699 329.349C600.582 329.527 600.454 329.801 600.309 330.158L601.619 330.348Z" fill="#3C8F7C"/>
<path d="M584.546 328.443C583.939 325.087 582.322 321.519 578.681 318.75C569.159 311.514 561.962 309.945 559.681 297.382C557.401 284.82 561.036 269.231 560.083 265.602C560.083 265.602 564.816 265.903 567.47 275.144C570.123 284.384 571.796 291.19 573.318 296.556C574.84 301.922 578.949 301.481 581.335 305.847C583.336 309.504 584.189 317.131 584.306 320.928C584.345 322.162 584.529 323.384 584.881 324.568C585.198 325.646 585.561 326.947 585.75 327.862C585.789 328.063 585.812 328.365 585.812 328.733L584.546 328.443Z" fill="#3C8F7C"/>
<path d="M569.513 250.611C566.301 264.435 575.361 264.698 574.374 273.659C573.387 282.62 582.714 299.465 586.466 311.006C588.418 317.009 588.161 325.691 587.464 332.642L591.785 333.301C592.761 315.585 587.526 302.358 584.777 291.973C581.237 278.606 581.287 272.755 587.403 263.648C593.519 254.541 590.558 228.154 598.854 217.853C607.156 207.551 606.47 189.299 605.985 182.253C605.505 175.207 607.875 170.829 610.322 163.85C612.77 156.871 611.476 146 611.476 146C609.882 154.866 601.268 166.017 595.186 173.085C589.103 180.154 576.626 200.008 576.253 209.807C575.879 219.606 575.227 220.248 575.227 220.248C569.825 232.627 572.724 236.781 569.513 250.611Z" fill="#215E4B"/>
<path d="M588.033 259.365C585.814 272.787 595.565 279.476 594.255 286.896C592.945 294.317 594.093 302.675 595.18 308.973C595.866 312.96 593.569 323.423 591.841 333.311L594.762 333.752C596.602 326.578 599.005 316.181 599.445 311.48C600.047 305.065 603.721 300.419 605.762 289.387C607.808 278.359 611.677 268.722 608.901 253.982C606.124 239.242 609.564 222.665 591.4 204.1C591.4 204.1 585.29 219.901 586.662 229.22C588.039 238.538 590.257 245.942 588.033 259.365Z" fill="#3C8F7C"/>
<path d="M588.033 259.366C585.814 272.789 595.565 279.477 594.255 286.898C592.945 294.318 594.093 302.676 595.18 308.975C595.866 312.961 593.569 323.424 591.841 333.313L593.051 333.497C593.53 331.448 593.887 330.169 593.887 330.169L598.291 305.183C598.291 305.183 600.058 285.374 600.304 269.053C600.549 252.733 591.4 204.107 591.4 204.107C591.4 204.107 585.29 219.908 586.662 229.227C588.039 238.54 590.257 245.944 588.033 259.366Z" fill="#327F6B"/>
<path d="M595.816 323.229L593.859 322.933L567.712 318.958C565.788 318.668 564.099 320.253 564.261 322.196L567.946 367.02C568.063 368.416 569.117 369.549 570.494 369.756L586.394 372.173L588.351 372.469L604.251 374.887C605.628 375.099 606.972 374.329 607.496 373.033L624.299 331.325C625.029 329.516 623.881 327.501 621.963 327.21L595.816 323.229Z" fill="#E69573"/>
<path d="M590.835 352.29C591.387 350.682 583.593 349.415 583.169 347.795C582.751 346.171 593.004 346.009 593.366 344.585C594.035 341.955 582.127 344.071 582.355 342.843C582.584 341.615 594.76 338.829 593.433 336.724C592.106 334.619 581.112 340.933 580.772 339.504C580.432 338.075 591.526 334.557 591.315 331.419C591.203 329.744 573.117 339.839 571.016 338.94C568.908 338.036 573.246 330.141 571.568 328.979C569.889 327.818 565.151 345.015 563.997 345.59C562.848 346.165 538.418 360.241 529.715 362.497C528.645 359.576 520.996 344.116 520.054 341.358C515.181 344.859 509.511 345.64 504.482 348.828C508.168 357.985 520.801 380.52 523.349 381.664C531.109 385.143 561.003 360.14 566.974 355.858C572.95 351.57 576.379 352.943 580.426 351.581C584.468 350.219 590.283 353.898 590.835 352.29Z" fill="#FFDBC7"/>
<path d="M502.147 351.284C502.147 351.284 491.571 327.8 489.965 318.688C488.36 309.576 496.165 298.136 504.344 298.873C512.522 299.61 524.782 340.156 524.782 340.156L502.147 351.284Z" fill="#F7F7F7"/>
</g>
</svg>
