<svg width="18" height="21" viewBox="0 0 18 21" fill="none" xmlns="http://www.w3.org/2000/svg">
<path d="M16.8152 14.874C15.5552 13.809 14.8327 12.2523 14.8327 10.6031V8.27979C14.8327 5.34729 12.6543 2.91979 9.83268 2.51312V1.61312C9.83268 1.15229 9.45935 0.779785 8.99935 0.779785C8.53935 0.779785 8.16602 1.15229 8.16602 1.61312V2.51312C5.34352 2.91979 3.16602 5.34729 3.16602 8.27979V10.6031C3.16602 12.2523 2.44352 13.809 1.17602 14.8806C0.851849 15.1581 0.666016 15.5615 0.666016 15.9881C0.666016 16.7923 1.32018 17.4465 2.12435 17.4465H15.8743C16.6785 17.4465 17.3327 16.7923 17.3327 15.9881C17.3327 15.5615 17.1468 15.1581 16.8152 14.874Z" fill="white"/>
<path d="M8.99917 20.7798C10.5083 20.7798 11.7708 19.704 12.0608 18.2798H5.9375C6.2275 19.704 7.49 20.7798 8.99917 20.7798Z" fill="white"/>
</svg>
