<svg width="132" height="29" viewBox="0 0 132 29" fill="none" xmlns="http://www.w3.org/2000/svg">
<path d="M13.5821 2.12599C13.5821 2.61136 13.4048 2.85406 13.0501 2.85406C13.0918 2.85406 12.8623 2.74727 12.3616 2.53371C12.0487 2.37838 11.2454 2.30072 9.9519 2.30072H8.54358C8.0429 2.30072 7.7299 2.37838 7.60474 2.53371C7.47958 2.66961 7.37526 2.99967 7.29179 3.52388C7.22921 4.02867 7.11442 4.78587 6.94753 5.79547C6.55116 8.766 6.35295 11.9404 6.35295 15.3186C6.35295 17.8232 6.63458 19.5123 7.1979 20.386C7.1979 20.6578 7.09358 20.7937 6.88495 20.7937C5.80005 20.7937 5.11155 20.2113 4.81946 19.0464C4.69428 18.5998 4.6317 17.629 4.6317 16.1341C4.6317 13.9596 4.67342 12.319 4.75687 11.2123C4.77774 10.6881 4.89249 9.46492 5.10112 7.54284C5.26805 6.00905 5.35147 4.78587 5.35147 3.87335C5.35147 2.76668 5.3619 2.49488 5.38279 3.05791C5.3619 2.76669 5.2263 2.62107 4.97594 2.62107C4.6004 2.62107 4.03709 2.68902 3.286 2.82493C2.55577 2.96084 2.0029 3.02879 1.62735 3.02879C0.792811 3.02879 0.250362 2.71815 0 2.09686C0.208635 1.7668 1.76296 1.43674 4.66299 1.10668C7.08316 0.854286 8.84611 0.728088 9.9519 0.728088C12.3721 0.728088 13.5821 1.19406 13.5821 2.12599Z" fill="white"/>
<path d="M26.356 17.0369C26.356 17.697 26.1369 18.2503 25.6987 18.6969C25.2815 19.124 24.7599 19.4735 24.134 19.7453C23.529 19.9977 22.8926 20.1821 22.225 20.2986C21.5574 20.3957 20.9732 20.4442 20.4724 20.4442C19.6588 20.4442 18.7408 20.3569 17.7185 20.1821C17.6767 20.3569 17.6037 20.4928 17.4994 20.5898C17.3951 20.7063 17.2073 20.7646 16.9361 20.7646C16.6648 20.7646 16.4562 20.6966 16.3102 20.5607C16.185 20.4248 16.1224 20.1627 16.1224 19.7744C16.1224 19.6579 16.0703 19.5803 15.966 19.5414C15.8825 19.4832 15.7782 19.4347 15.653 19.3958C15.5487 19.3376 15.4444 19.2793 15.3401 19.2211C15.2566 19.1434 15.2148 19.0269 15.2148 18.8716C15.2148 18.7357 15.2462 18.6289 15.3087 18.5513C15.3713 18.4736 15.4444 18.4154 15.5278 18.3765C15.6113 18.3183 15.6843 18.2698 15.7468 18.2309C15.8095 18.1921 15.8407 18.1241 15.8407 18.0271C15.8407 17.7747 15.8512 17.4543 15.8721 17.066C15.8929 16.6777 15.9034 16.3379 15.9034 16.0467C15.9034 15.8331 15.8095 15.6972 15.6217 15.639C15.4548 15.5613 15.3713 15.4448 15.3713 15.2895C15.3713 15.1342 15.4444 15.0177 15.5904 14.94C15.7573 14.8624 15.8407 14.7459 15.8407 14.5906V9.05719C15.8407 8.86307 15.966 8.66889 16.2163 8.47472C16.4875 8.26119 16.7587 8.1544 17.03 8.1544C17.3638 8.1544 17.5724 8.19321 17.6559 8.27089C17.7602 8.34852 17.8124 8.47472 17.8124 8.64949C17.8124 8.90188 17.7915 9.19309 17.7497 9.52317C17.7081 9.83379 17.6872 10.1445 17.6872 10.4551C17.9375 10.2027 18.1566 9.92117 18.3444 9.61055C18.5322 9.28048 18.7512 8.98927 19.0016 8.73687C19.252 8.46502 19.5649 8.24178 19.9404 8.06701C20.316 7.87289 20.8167 7.7758 21.4426 7.7758C21.9642 7.7758 22.4127 7.86319 22.7883 8.0379C23.1847 8.21262 23.5915 8.4359 24.0088 8.70771C24.6764 9.17369 25.1459 9.61055 25.4171 10.0183C25.6883 10.4066 25.824 10.9016 25.824 11.5035C25.824 12.0471 25.6153 12.6199 25.198 13.2218C24.8016 13.8237 24.2279 14.2993 23.4768 14.6488C23.3516 14.707 23.289 14.7653 23.289 14.8235C23.289 14.8818 23.3412 14.9303 23.4455 14.9691C23.5498 14.9886 23.6958 15.0177 23.8836 15.0565C24.1966 15.1342 24.4991 15.2312 24.7912 15.3477C25.0833 15.4642 25.3441 15.6098 25.5736 15.7846C25.8031 15.9399 25.9909 16.1243 26.1369 16.3379C26.283 16.5515 26.356 16.7845 26.356 17.0369ZM24.0401 11.4161C24.0401 10.6784 23.7793 10.125 23.2577 9.75616C22.757 9.36786 22.1207 9.17369 21.3487 9.17369C20.8271 9.17369 20.3473 9.30959 19.9092 9.58139C19.471 9.83379 19.0955 10.1639 18.7825 10.5716C18.4695 10.9793 18.2192 11.4355 18.0314 11.9403C17.8436 12.4452 17.7289 12.9305 17.6872 13.3965C17.6663 13.5518 17.6559 13.7266 17.6559 13.9207C17.6559 14.0955 17.6559 14.2702 17.6559 14.4449C17.6559 14.5809 17.7393 14.6488 17.9063 14.6488C19.3667 14.61 20.5037 14.5323 21.3174 14.4158C22.1311 14.2799 22.7362 14.0858 23.1325 13.8334C23.5498 13.581 23.8002 13.2606 23.8836 12.8723C23.988 12.4646 24.0401 11.9792 24.0401 11.4161ZM24.3844 16.9786C24.3844 16.7845 24.3531 16.6097 24.2905 16.4544C24.2279 16.2796 24.0714 16.134 23.8211 16.0175C23.5915 15.9011 23.2473 15.8137 22.7883 15.7554C22.3293 15.6972 21.693 15.6681 20.8793 15.6681C20.6498 15.6681 20.4307 15.6778 20.2221 15.6972C20.0135 15.6972 19.7944 15.7069 19.5649 15.7263C19.3563 15.7263 19.1163 15.736 18.8451 15.7554C18.5738 15.7749 18.2714 15.7943 17.9375 15.8137C17.7289 15.8137 17.6246 15.9108 17.6246 16.1049C17.6246 16.5321 17.6246 16.998 17.6246 17.5028C17.6454 17.9882 17.6663 18.396 17.6872 18.726C18.1044 18.9202 18.5322 19.0658 18.9703 19.1628C19.4293 19.2599 19.9091 19.3085 20.4098 19.3085C21.1818 19.3085 21.8286 19.2405 22.3502 19.1046C22.8717 18.9493 23.2786 18.7648 23.5707 18.5513C23.8627 18.3183 24.0714 18.0659 24.1966 17.7941C24.3217 17.5223 24.3844 17.2504 24.3844 16.9786Z" fill="white"/>
<path d="M37.6471 14.5615C37.6471 16.2312 37.2507 17.6873 36.4579 18.9299C35.519 20.4249 34.2151 21.1723 32.546 21.1723C30.8561 21.1723 29.5938 20.5608 28.7593 19.3376C28.0708 18.328 27.7266 16.9883 27.7266 15.3187C27.7266 13.6683 28.1229 12.0472 28.9158 10.4551C29.9172 8.49421 31.1899 7.51373 32.7338 7.51373C33.1302 7.51373 33.6935 7.72726 34.4237 8.15443C36.5727 9.397 37.6471 11.5327 37.6471 14.5615ZM36.145 14.5323C36.145 13.2897 35.9676 12.1734 35.6129 11.1832C35.0913 9.80471 34.2881 9.11549 33.2032 9.11549C31.9514 9.11549 30.9708 9.88239 30.2615 11.4162C29.719 12.6005 29.4478 13.8722 29.4478 15.2313C29.4478 16.4544 29.6356 17.4834 30.0111 18.3183C30.5536 19.4638 31.3985 20.0366 32.546 20.0366C33.7978 20.0366 34.7471 19.3765 35.3939 18.0562C35.8946 17.0272 36.145 15.8526 36.145 14.5323Z" fill="white"/>
<path d="M38.5605 20.1239C38.5605 19.7161 38.7379 19.3084 39.0925 18.9007C39.4681 18.4736 39.9062 18.0756 40.407 17.7067C40.9285 17.3378 41.4605 17.0077 42.003 16.7165C42.5663 16.4059 43.0253 16.1729 43.38 16.0175C42.9001 15.9205 42.4203 15.7943 41.9404 15.6389C41.4814 15.4642 41.0746 15.2409 40.7199 14.9691C40.3652 14.6779 40.0731 14.3187 39.8437 13.8916C39.635 13.4645 39.5307 12.9305 39.5307 12.2898C39.5307 11.6491 39.6872 11.0472 40.0001 10.4842C40.3339 9.90175 40.7512 9.39696 41.2519 8.9698C41.7735 8.54269 42.3577 8.21261 43.0044 7.97962C43.6721 7.72723 44.3397 7.60103 45.0073 7.60103C45.2577 7.60103 45.5185 7.62049 45.7898 7.6593C46.0818 7.67871 46.3113 7.68841 46.4782 7.68841C46.6243 7.68841 46.7599 7.63019 46.8851 7.51369C47.0311 7.3972 47.1772 7.33893 47.3232 7.33893C47.5527 7.33893 47.7509 7.3972 47.9178 7.51369C48.1056 7.61073 48.2203 7.71752 48.2621 7.83402C48.4915 7.87288 48.6793 7.95051 48.8254 8.06701C48.9923 8.1835 49.0758 8.35827 49.0758 8.59121C49.0758 8.74656 49.0236 8.8436 48.9193 8.88247C48.8358 8.92128 48.7419 8.95039 48.6376 8.9698C48.5333 8.98926 48.429 9.01837 48.3246 9.05718C48.2412 9.07659 48.1995 9.14457 48.1995 9.26106C48.1995 9.66877 48.2099 10.193 48.2308 10.8337C48.2725 11.455 48.3142 12.0665 48.356 12.6684C48.3976 13.2509 48.4394 13.7557 48.4811 14.1828C48.5229 14.6099 48.5542 14.8235 48.575 14.8235C48.8462 14.9206 49.0236 15.0371 49.107 15.173C49.1905 15.2895 49.2322 15.4254 49.2322 15.5807C49.2322 15.7943 49.1801 15.9593 49.0758 16.0758C48.9923 16.1729 48.888 16.2505 48.7628 16.3088C48.6376 16.367 48.5229 16.4156 48.4185 16.4544C48.3351 16.4932 48.2934 16.5418 48.2934 16.6C48.2934 17.2796 48.2308 17.9688 48.1056 18.6677C48.0013 19.3473 47.8656 19.8812 47.6988 20.2695C47.6153 20.4442 47.4901 20.5607 47.3232 20.619C47.1772 20.6966 47.0102 20.7354 46.8225 20.7354C46.7182 20.7354 46.5512 20.7063 46.3218 20.6481C46.0923 20.6092 45.9775 20.5025 45.9775 20.3277C45.9775 20.2306 46.0296 20.1336 46.134 20.0365C46.3009 19.8035 46.4469 19.3764 46.5721 18.7551C46.7182 18.1338 46.7912 17.4155 46.7912 16.6C46.7912 16.5418 46.7078 16.4932 46.5408 16.4544C46.3948 16.4156 46.0923 16.3961 45.6333 16.3961C45.1534 16.4738 44.6631 16.6291 44.1624 16.8621C43.6825 17.0757 43.2027 17.3378 42.7228 17.6485C42.2638 17.9591 41.8257 18.2989 41.4084 18.6677C40.9911 19.0366 40.6156 19.4152 40.2818 19.8035C40.1149 19.9977 39.9688 20.2015 39.8437 20.4151C39.7184 20.6481 39.5098 20.7646 39.2178 20.7646C39.0509 20.7646 38.8943 20.7063 38.7483 20.5898C38.6231 20.4928 38.5605 20.3374 38.5605 20.1239ZM41.2832 12.1442C41.2832 13.115 41.6379 13.8334 42.3473 14.2993C43.0775 14.7653 44.0268 15.0759 45.1951 15.2312C45.3412 15.2312 45.5394 15.2118 45.7898 15.173C46.0401 15.1341 46.3739 15.0468 46.7912 14.9109C46.8746 14.8915 46.9164 14.8332 46.9164 14.7361C46.9164 13.6877 46.8642 12.6684 46.7599 11.6782C46.6556 10.6686 46.5095 9.72704 46.3218 8.85336C45.9671 8.79508 45.5185 8.76597 44.9761 8.76597C44.4336 8.76597 43.9329 8.87276 43.4739 9.08629C43.0358 9.28047 42.6602 9.54257 42.3473 9.87264C42.0343 10.1833 41.784 10.5424 41.5962 10.9502C41.4084 11.3579 41.3041 11.7559 41.2832 12.1442Z" fill="white"/>
<path d="M63.2911 5.67896C63.8127 6.70795 64.2822 7.53312 64.6995 8.1544C65.1169 8.77569 65.4822 9.26108 65.7948 9.61056C66.108 9.95999 66.348 10.193 66.5148 10.3095C66.7027 10.426 66.8174 10.4842 66.859 10.4842C67.0469 10.4842 67.2032 10.4066 67.3285 10.2513C67.9959 9.29989 68.6743 8.25149 69.3627 7.10596C70.0511 5.96047 70.7501 4.56258 71.4595 2.91228C71.7095 2.31041 71.9285 1.82503 72.1164 1.45614C72.3043 1.08725 72.4711 0.81544 72.6174 0.640704C72.7843 0.44655 72.9511 0.320351 73.118 0.262106C73.2848 0.20386 73.4832 0.174737 73.7127 0.174737C73.9211 0.174737 74.109 0.223275 74.2759 0.320351C74.4427 0.417427 74.5264 0.553336 74.5264 0.728072C74.5053 0.922221 74.4116 1.1552 74.2448 1.42702C74.0985 1.67942 73.9838 1.89299 73.9006 2.06772C73.5459 2.74726 73.1285 3.51416 72.6485 4.36843C72.1895 5.22269 71.699 6.09637 71.1774 6.98946C70.6769 7.8826 70.1553 8.78539 69.6127 9.69789C69.0911 10.591 68.5906 11.4356 68.1106 12.2316C67.6516 13.0082 67.2343 13.7072 66.859 14.3285C66.4832 14.9497 66.1911 15.4351 65.9827 15.7846C65.5653 16.4641 65.1274 17.1048 64.6685 17.7067C64.2301 18.2892 63.7606 18.8037 63.2601 19.2502C62.759 19.6773 62.2169 20.0171 61.6327 20.2695C61.0695 20.5219 60.4432 20.6481 59.7548 20.6481C59.4422 20.6481 59.0874 20.6092 58.6911 20.5316C58.3153 20.4539 57.9501 20.3374 57.5953 20.1821C57.2406 20.0268 56.9385 19.8229 56.688 19.5705C56.4585 19.3182 56.3438 19.0269 56.3438 18.6969C56.3438 18.4251 56.4374 18.2018 56.6253 18.0271C56.8132 17.8329 57.0322 17.7358 57.2827 17.7358C57.5953 17.7358 57.8874 17.8911 58.159 18.2018C58.4716 18.5901 58.7327 18.8425 58.9411 18.959C59.1501 19.0755 59.369 19.1337 59.5985 19.1337C59.9948 19.1337 60.3806 19.0464 60.7564 18.8716C61.1316 18.6969 61.4864 18.4639 61.8206 18.1727C62.1748 17.8814 62.509 17.5514 62.8216 17.1825C63.1348 16.8136 63.4269 16.4447 63.698 16.0758C64.3032 15.2604 64.7932 14.542 65.169 13.9207C65.5653 13.2994 65.7637 12.8335 65.7637 12.5228C65.7637 12.4063 65.7322 12.2704 65.6695 12.1151C65.3148 11.5326 64.8769 10.8822 64.3553 10.1639C63.8548 9.42609 63.3332 8.6689 62.7906 7.8923C62.248 7.11566 61.7059 6.34877 61.1632 5.59158C60.6416 4.83439 60.1722 4.14515 59.7548 3.52387C59.3374 2.88316 58.9932 2.33954 58.7222 1.89299C58.4716 1.42702 58.3464 1.11637 58.3464 0.961056C58.3464 0.320351 58.7116 0 59.4422 0C59.609 0 59.849 0.0485376 60.1616 0.145613C60.4953 0.223275 60.8085 0.339767 61.1006 0.495088C61.1216 0.786319 61.2048 1.1455 61.3511 1.57263C61.518 1.99977 61.7059 2.45603 61.9143 2.94141C62.1227 3.40737 62.3522 3.88305 62.6027 4.36843C62.8532 4.85381 63.0827 5.29066 63.2911 5.67896Z" fill="white"/>
<path d="M76.7657 3.93155C76.7657 3.15494 77.0157 2.53365 77.5168 2.06768C78.0383 1.60171 78.6852 1.24253 79.4568 0.990135C80.2289 0.737739 81.0425 0.572706 81.8978 0.495047C82.7741 0.417386 83.5773 0.378555 84.3078 0.378555C84.7252 0.378555 84.9962 0.446508 85.1215 0.582415C85.2673 0.718322 85.3404 0.893058 85.3404 1.10662C85.3404 1.43669 85.2568 1.65996 85.0899 1.77645C84.9231 1.87353 84.6936 1.92207 84.4015 1.92207C84.2136 1.92207 84.0678 1.91236 83.9636 1.89294C83.8799 1.87353 83.7968 1.85411 83.7131 1.8347C83.6294 1.79587 83.5357 1.76675 83.4315 1.74733C83.3273 1.72792 83.181 1.71821 82.9931 1.71821C82.8262 1.71821 82.4925 1.73762 81.992 1.77645C81.491 1.79587 80.9694 1.87353 80.4273 2.00943C79.9057 2.12593 79.4362 2.32979 79.0189 2.62102C78.6226 2.89283 78.4241 3.28113 78.4241 3.78593C78.4241 4.34897 78.7057 4.94114 79.2689 5.56243C79.8326 6.16431 80.6773 6.83411 81.8041 7.57189C82.3047 7.90197 82.7636 8.27086 83.181 8.67857C83.6194 9.08627 83.9947 9.57166 84.3078 10.1347C84.6415 10.6783 84.892 11.3288 85.0589 12.086C85.2468 12.8237 85.3404 13.6974 85.3404 14.707C85.3404 15.6001 85.2257 16.4447 84.9962 17.2407C84.7873 18.0367 84.4641 18.7357 84.0262 19.3375C83.6089 19.92 83.0978 20.386 82.4925 20.7354C81.9083 21.0849 81.241 21.2597 80.4894 21.2597C78.9247 21.2597 77.6836 20.7937 76.7657 19.8617C75.8683 18.9298 75.4199 17.464 75.4199 15.4642C75.4199 13.9304 75.6078 12.6781 75.9831 11.7074C76.3794 10.7366 76.8073 9.96971 77.2662 9.40664C77.7252 8.82417 78.1426 8.41647 78.5178 8.18348C78.9147 7.93108 79.1126 7.75636 79.1126 7.65928C79.1126 7.50397 78.9873 7.33891 78.7373 7.16419C78.4868 6.97002 78.1636 6.64969 77.7668 6.20312C77.4541 5.85364 77.2036 5.47505 77.0157 5.06734C76.8489 4.6402 76.7657 4.2616 76.7657 3.93155ZM77.141 15.4933C77.141 17.0077 77.402 18.1532 77.9236 18.9298C78.4657 19.7064 79.2068 20.0947 80.1452 20.0947C80.6668 20.0947 81.1362 19.9685 81.5536 19.7161C81.992 19.4443 82.3673 19.0657 82.6804 18.5803C82.9931 18.095 83.2331 17.5319 83.3999 16.8912C83.5878 16.2311 83.6815 15.503 83.6815 14.707C83.6815 13.8721 83.6089 13.1344 83.4625 12.4937C83.3373 11.853 83.1499 11.2996 82.8994 10.8337C82.6699 10.3483 82.3883 9.94055 82.0547 9.61052C81.7204 9.26104 81.3657 8.96978 80.9904 8.73684C80.6983 8.56207 80.4794 8.47469 80.3331 8.47469C80.1873 8.47469 79.9368 8.64946 79.582 8.99894C79.2273 9.34842 78.8726 9.84351 78.5178 10.4842C78.1636 11.1055 77.8399 11.8433 77.5478 12.6975C77.2768 13.5518 77.141 14.4837 77.141 15.4933Z" fill="white"/>
<path d="M96.8658 14.5615C96.8658 16.2312 96.469 17.6873 95.6764 18.9299C94.7374 20.4249 93.4337 21.1723 91.7648 21.1723C90.0748 21.1723 88.8122 20.5608 87.9779 19.3376C87.2895 18.328 86.9453 16.9883 86.9453 15.3187C86.9453 13.6683 87.3416 12.0472 88.1343 10.4551C89.1358 8.49421 90.4085 7.51373 91.9522 7.51373C92.3485 7.51373 92.9121 7.72726 93.6421 8.15443C95.7911 9.397 96.8658 11.5327 96.8658 14.5615ZM95.3637 14.5323C95.3637 13.2897 95.1864 12.1734 94.8316 11.1832C94.31 9.80471 93.5069 9.11549 92.4216 9.11549C91.17 9.11549 90.1895 9.88239 89.48 11.4162C88.9374 12.6005 88.6664 13.8722 88.6664 15.2313C88.6664 16.4544 88.8543 17.4834 89.2295 18.3183C89.7722 19.4638 90.6169 20.0366 91.7648 20.0366C93.0164 20.0366 93.9658 19.3765 94.6121 18.0562C95.1132 17.0272 95.3637 15.8526 95.3637 14.5323Z" fill="white"/>
<path d="M107.824 13.1635C107.824 15.0856 107.521 16.6971 106.917 17.9979C106.103 19.8035 104.82 20.7063 103.067 20.7063C101.92 20.7063 100.918 20.2112 100.063 19.221C99.9166 19.2793 99.844 19.8812 99.844 21.0267C99.844 23.5506 99.9792 25.3369 100.251 26.3853C100.271 26.4824 100.366 26.7153 100.532 27.0842C100.72 27.4531 100.814 27.6764 100.814 27.754C100.814 28.0647 100.606 28.22 100.188 28.22C99.6871 28.22 99.3324 28.152 99.124 28.0161C98.9361 27.8802 98.7692 27.4337 98.6234 26.6765C98.4982 26.0358 98.4355 25.531 98.4355 25.1621V17.7649C98.4355 17.0854 98.4771 16.1729 98.5608 15.0273C98.644 13.6877 98.6961 12.7752 98.7171 12.2898C98.7382 11.7656 98.7382 11.0861 98.7171 10.2512C98.6961 9.18337 98.6861 8.49416 98.6861 8.18349C98.6861 6.84383 99.0613 6.17403 99.8124 6.17403C100.188 6.17403 100.376 6.30022 100.376 6.55262C100.376 7.03801 100.334 7.74667 100.251 8.67858C100.167 9.61053 100.126 10.3095 100.126 10.7754H100.251C100.73 10.1735 101.21 9.56197 101.69 8.94068C102.253 8.26117 102.952 7.92139 103.787 7.92139C105.185 7.92139 106.238 8.50386 106.948 9.66876C107.532 10.6007 107.824 11.7656 107.824 13.1635ZM106.291 13.28C106.291 12.251 106.176 11.3676 105.947 10.6298C105.592 9.54256 105.018 8.99895 104.225 8.99895C103.641 8.99895 102.931 9.47463 102.097 10.4259C101.367 11.2608 100.856 12.1151 100.563 12.9888C100.334 13.6489 100.146 14.6196 100 15.901C99.8961 16.833 99.844 17.2796 99.844 17.2407C99.844 17.299 99.9377 17.396 100.126 17.532C100.251 17.6096 100.376 17.697 100.501 17.7941C100.835 18.2406 101.169 18.6968 101.502 19.1628C101.857 19.6093 102.379 19.8326 103.067 19.8326C104.214 19.8326 105.08 18.9589 105.664 17.2116C106.082 15.969 106.291 14.6585 106.291 13.28Z" fill="white"/>
<path d="M120.123 20.9976C119.581 21.3859 119.163 21.58 118.871 21.58C118.642 21.58 118.35 21.4538 117.995 21.2014C117.64 20.9684 117.265 20.6675 116.868 20.2986C116.472 19.9103 116.065 19.5026 115.648 19.0754C115.231 18.6289 114.844 18.2115 114.49 17.8232C114.156 17.4155 113.864 17.066 113.613 16.7748C113.384 16.4835 113.238 16.3088 113.176 16.2505C112.612 15.7069 112.132 15.3186 111.736 15.0856C111.444 15.0856 111.267 15.2506 111.204 15.5807C111.162 15.9108 111.141 16.2505 111.141 16.6C111.141 17.0077 111.141 17.4058 111.141 17.7941C111.141 18.1629 111.152 18.4542 111.172 18.6677C111.193 18.8425 111.267 19.0948 111.392 19.4249C111.517 19.7355 111.579 19.9782 111.579 20.153C111.579 20.2695 111.507 20.3763 111.36 20.4733C111.214 20.5898 111.037 20.6481 110.828 20.6481C110.411 20.6481 110.098 20.5219 109.89 20.2695C109.681 20.0171 109.577 19.5511 109.577 18.8716C109.577 17.6873 109.577 16.668 109.577 15.8137C109.598 14.94 109.608 14.1828 109.608 13.5421C109.629 12.9014 109.639 12.3578 109.639 11.9112C109.66 11.4452 109.67 11.0472 109.67 10.7172C109.67 10.5036 109.67 10.3289 109.67 10.193C109.67 10.0571 109.66 9.93085 109.639 9.81436C109.618 9.69786 109.598 9.58137 109.577 9.46488C109.556 9.34843 109.524 9.20278 109.483 9.02806C109.42 8.77566 109.389 8.55238 109.389 8.35825C109.389 8.16408 109.546 7.96991 109.858 7.77578C110.192 7.58161 110.484 7.48452 110.734 7.48452C110.922 7.48452 111.12 7.54279 111.329 7.65929C111.559 7.75637 111.673 7.88257 111.673 8.03788C111.673 8.0961 111.611 8.3388 111.486 8.76596C111.36 9.17366 111.298 9.81436 111.298 10.688C111.298 11.2899 111.277 11.785 111.235 12.1733C111.193 12.5616 111.172 12.8043 111.172 12.9014C111.172 12.9985 111.225 13.047 111.329 13.047C111.559 12.8917 111.861 12.6781 112.237 12.4063C112.612 12.1151 113.019 11.785 113.457 11.4161C113.916 11.0278 114.386 10.6104 114.866 10.1638C115.366 9.71732 115.836 9.26105 116.274 8.79507C116.837 8.19319 117.296 7.76608 117.651 7.51368C118.026 7.24188 118.266 7.10593 118.37 7.10593C118.662 7.10593 118.902 7.20301 119.09 7.39719C119.278 7.59131 119.372 7.84371 119.372 8.15438C119.372 8.30969 119.361 8.41648 119.341 8.4747C118.944 8.72709 118.454 9.07658 117.87 9.52315C117.286 9.95026 116.608 10.4745 115.836 11.0958C114.062 12.5519 113.176 13.513 113.176 13.9789C113.176 14.076 113.29 14.2799 113.52 14.5905C113.77 14.8817 114.073 15.2312 114.427 15.6389C114.803 16.0272 115.199 16.435 115.617 16.8621C116.034 17.2893 116.42 17.6873 116.774 18.0562C117.421 18.7357 118.026 19.289 118.59 19.7161C119.153 20.1433 119.664 20.4636 120.123 20.6772C120.186 20.716 120.217 20.7743 120.217 20.8519C120.217 20.8908 120.186 20.9393 120.123 20.9976Z" fill="white"/>
<path d="M131.053 21.1433C131.053 21.4151 130.824 21.551 130.365 21.551C129.864 21.551 129.561 21.3568 129.457 20.9685C129.436 20.9103 129.426 20.5317 129.426 19.8327C129.426 19.6386 129.395 19.4832 129.332 19.3667C128.163 20.1628 126.901 20.5608 125.545 20.5608C124.606 20.5608 123.699 20.3181 122.822 19.8327C121.821 19.2891 121.32 18.6095 121.32 17.7941C121.32 16.9981 121.915 16.2215 123.104 15.4643C124.189 14.7653 125.19 14.4158 126.108 14.4158H129.207C129.332 14.2994 129.395 14.0955 129.395 13.8043C129.395 12.5035 129.28 11.523 129.05 10.8629C128.675 9.75623 127.934 9.20287 126.828 9.20287C126.035 9.20287 125.305 9.66884 124.638 10.6008C124.032 11.4551 123.73 12.2705 123.73 13.0471C123.73 13.0859 123.73 13.1442 123.73 13.2218C123.73 13.2995 123.73 13.348 123.73 13.3674C123.73 13.5228 123.647 13.6004 123.479 13.6004C123.271 13.6004 123.041 13.4839 122.791 13.251C122.541 13.018 122.416 12.8141 122.416 12.6394C122.416 12.0958 122.593 11.4162 122.948 10.6008C123.302 9.76593 123.688 9.13494 124.106 8.70778C124.627 8.18358 125.274 7.92148 126.046 7.92148C127.235 7.92148 128.33 8.27096 129.332 8.96988C130.396 9.72711 130.938 10.6396 130.959 11.7075L131.053 21.1433ZM129.395 16.5127C129.395 15.7361 128.748 15.3478 127.454 15.3478C126.432 15.3478 125.535 15.5128 124.762 15.8429C123.782 16.27 123.292 16.9107 123.292 17.765C123.292 18.2892 123.552 18.6969 124.074 18.9881C124.512 19.2405 125.034 19.3667 125.639 19.3667C126.536 19.3667 127.381 19.0949 128.174 18.5513C128.988 18.0077 129.395 17.3282 129.395 16.5127Z" fill="white"/>
</svg>
